<svg xmlns="http://www.w3.org/2000/svg" version="1.1" xmlns:xlink="http://www.w3.org/1999/xlink" xmlns:svgjs="http://svgjs.dev/svgjs" width="765" height="625" viewBox="0 0 342.2280029296875 300" class="svg-animations " style="background-color: rgb(41, 41, 41);"><svg viewBox="0 0 138.01300048828125 139.01300048828125" width="80" height="80" x="28.519000244140614" y="110" style="fill: rgb(255, 255, 255);"><svg width="138" height="134" viewBox="0 0 138 134" xmlns="http://www.w3.org/2000/svg">
	<path d="M92.2821 0C75.9827 2.03963 61.5684 16.3812 60.0808 37.0469C58.4137 57.3534 70.1093 84.215 102.888 92.412C69.5194 96.3502 39.0109 76.6466 26.4561 43.9611C23.0962 35.3023 21.07 25.6814 20.7109 15.7013C7.93811 28.2213 0 45.6672 0 64.986C0 103.11 30.8932 134.013 69.0064 134.013C107.12 134.013 138.013 103.11 138.013 64.986C138 35.0329 118.931 9.55677 92.2821 0Z"/>
	</svg></svg><svg x="118.51900024414061" y="134.08500003814697" style="fill: rgb(255, 255, 255);"><path d="M6.02 3.07L6.02 13.12L7.18 13.12Q7.79 13.12 8.16 12.97Q8.53 12.82 8.83 12.45L8.83 12.45L16.46 3.81Q16.78 3.39 17.14 3.23Q17.49 3.07 18 3.07L18 3.07L20.62 3.07L11.89 12.94Q11.57 13.33 11.27 13.58Q10.98 13.82 10.64 13.98L10.64 13.98Q11.07 14.13 11.42 14.41Q11.78 14.69 12.11 15.14L12.11 15.14L21.23 26L18.54 26Q18.24 26 18.02 25.96Q17.81 25.92 17.65 25.83Q17.49 25.74 17.37 25.62Q17.25 25.50 17.14 25.34L17.14 25.34L9.23 16.24Q8.91 15.84 8.54 15.67Q8.18 15.50 7.42 15.50L7.42 15.50L6.02 15.50L6.02 26L2.93 26L2.93 3.07L6.02 3.07ZM32.24 22.06L32.24 18.70Q30.27 18.77 28.89 19.02Q27.50 19.26 26.63 19.66Q25.76 20.06 25.37 20.61Q24.98 21.15 24.98 21.82L24.98 21.82Q24.98 22.46 25.18 22.93Q25.39 23.39 25.75 23.69Q26.11 23.98 26.60 24.12Q27.09 24.26 27.65 24.26L27.65 24.26Q28.40 24.26 29.02 24.10Q29.65 23.95 30.20 23.66Q30.75 23.38 31.26 22.98Q31.76 22.58 32.24 22.06L32.24 22.06ZM23.55 12.99L23.04 12.08Q24.38 10.78 25.94 10.14Q27.49 9.50 29.38 9.50L29.38 9.50Q30.74 9.50 31.79 9.95Q32.85 10.40 33.57 11.20Q34.29 12 34.66 13.14Q35.02 14.27 35.02 15.63L35.02 15.63L35.02 26L33.76 26Q33.34 26 33.12 25.86Q32.90 25.73 32.77 25.33L32.77 25.33L32.45 23.79Q31.81 24.38 31.20 24.84Q30.59 25.30 29.92 25.61Q29.25 25.92 28.49 26.09Q27.73 26.26 26.80 26.26L26.80 26.26Q25.86 26.26 25.02 25.99Q24.19 25.73 23.58 25.20Q22.96 24.67 22.60 23.86Q22.24 23.06 22.24 21.95L22.24 21.95Q22.24 20.99 22.77 20.10Q23.30 19.22 24.48 18.53Q25.66 17.84 27.57 17.40Q29.47 16.96 32.24 16.90L32.24 16.90L32.24 15.63Q32.24 13.74 31.42 12.78Q30.61 11.81 29.04 11.81L29.04 11.81Q27.98 11.81 27.27 12.07Q26.56 12.34 26.04 12.66Q25.52 12.99 25.14 13.26Q24.77 13.52 24.40 13.52L24.40 13.52Q24.11 13.52 23.90 13.37Q23.70 13.22 23.55 12.99L23.55 12.99ZM42.22 14.26L42.22 22.10Q43.01 23.15 43.94 23.58Q44.88 24.02 46 24.02L46 24.02Q48.29 24.02 49.50 22.40Q50.72 20.78 50.72 17.58L50.72 17.58Q50.72 14.61 49.64 13.21Q48.56 11.81 46.56 11.81L46.56 11.81Q45.17 11.81 44.14 12.45Q43.10 13.09 42.22 14.26L42.22 14.26ZM42.22 2.43L42.22 12.13Q43.25 10.94 44.54 10.24Q45.82 9.54 47.50 9.54L47.50 9.54Q48.93 9.54 50.07 10.08Q51.22 10.62 52.02 11.66Q52.82 12.69 53.24 14.16Q53.66 15.63 53.66 17.47L53.66 17.47Q53.66 19.44 53.18 21.06Q52.70 22.67 51.80 23.82Q50.90 24.96 49.60 25.59Q48.30 26.22 46.69 26.22L46.69 26.22Q45.09 26.22 43.99 25.62Q42.90 25.02 42.08 23.92L42.08 23.92L41.94 25.39Q41.81 26 41.20 26L41.20 26L39.36 26L39.36 2.43L42.22 2.43ZM67.76 9.79L70.61 9.79L70.61 26L68.91 26Q68.30 26 68.14 25.41L68.14 25.41L67.92 23.66Q66.86 24.83 65.55 25.54Q64.24 26.26 62.54 26.26L62.54 26.26Q61.22 26.26 60.20 25.82Q59.18 25.38 58.50 24.58Q57.81 23.78 57.46 22.64Q57.12 21.50 57.12 20.13L57.12 20.13L57.12 9.79L59.97 9.79L59.97 20.13Q59.97 21.97 60.81 22.98Q61.65 23.98 63.38 23.98L63.38 23.98Q64.64 23.98 65.74 23.38Q66.83 22.78 67.76 21.73L67.76 21.73L67.76 9.79ZM75.22 2.43L78.06 2.43L78.06 26L75.22 26L75.22 2.43ZM107.63 21.26L107.63 21.26Q107.89 21.26 108.08 21.47L108.08 21.47L109.31 22.80Q107.90 24.43 105.90 25.34Q103.89 26.26 101.04 26.26L101.04 26.26Q98.58 26.26 96.56 25.40Q94.54 24.54 93.12 23Q91.70 21.46 90.91 19.30Q90.13 17.14 90.13 14.54L90.13 14.54Q90.13 11.95 90.94 9.79Q91.76 7.63 93.24 6.08Q94.72 4.53 96.78 3.67Q98.85 2.82 101.34 2.82L101.34 2.82Q103.79 2.82 105.66 3.60Q107.54 4.38 108.96 5.73L108.96 5.73L107.94 7.15Q107.84 7.31 107.69 7.42Q107.54 7.52 107.28 7.52L107.28 7.52Q106.99 7.52 106.58 7.21Q106.16 6.90 105.49 6.51Q104.82 6.13 103.81 5.82Q102.80 5.50 101.33 5.50L101.33 5.50Q99.55 5.50 98.08 6.12Q96.61 6.74 95.54 7.90Q94.48 9.07 93.89 10.75Q93.30 12.43 93.30 14.54L93.30 14.54Q93.30 16.69 93.91 18.37Q94.53 20.05 95.59 21.21Q96.66 22.37 98.10 22.98Q99.55 23.58 101.23 23.58L101.23 23.58Q102.26 23.58 103.08 23.46Q103.90 23.34 104.60 23.09Q105.30 22.83 105.90 22.44Q106.50 22.05 107.09 21.50L107.09 21.50Q107.36 21.26 107.63 21.26ZM119.07 9.54L119.07 9.54Q120.85 9.54 122.27 10.13Q123.70 10.72 124.70 11.81Q125.71 12.90 126.25 14.44Q126.78 15.98 126.78 17.89L126.78 17.89Q126.78 19.81 126.25 21.34Q125.71 22.88 124.70 23.97Q123.70 25.06 122.27 25.64Q120.85 26.22 119.07 26.22L119.07 26.22Q117.28 26.22 115.85 25.64Q114.42 25.06 113.41 23.97Q112.40 22.88 111.86 21.34Q111.33 19.81 111.33 17.89L111.33 17.89Q111.33 15.98 111.86 14.44Q112.40 12.90 113.41 11.81Q114.42 10.72 115.85 10.13Q117.28 9.54 119.07 9.54ZM119.07 24L119.07 24Q121.47 24 122.66 22.39Q123.84 20.78 123.84 17.90L123.84 17.90Q123.84 15.01 122.66 13.39Q121.47 11.78 119.07 11.78L119.07 11.78Q117.86 11.78 116.95 12.19Q116.05 12.61 115.45 13.39Q114.85 14.18 114.55 15.32Q114.26 16.46 114.26 17.90L114.26 17.90Q114.26 20.78 115.45 22.39Q116.64 24 119.07 24ZM134.30 26L131.44 26L131.44 12.22L129.65 12.02Q129.31 11.94 129.10 11.77Q128.88 11.60 128.88 11.28L128.88 11.28L128.88 10.11L131.44 10.11L131.44 8.54Q131.44 7.15 131.83 6.07Q132.22 4.99 132.95 4.25Q133.68 3.50 134.70 3.12Q135.73 2.74 137.01 2.74L137.01 2.74Q138.10 2.74 139.01 3.06L139.01 3.06L138.94 4.48Q138.91 4.86 138.52 4.90Q138.13 4.93 137.47 4.93L137.47 4.93Q136.74 4.93 136.14 5.12Q135.54 5.31 135.10 5.74Q134.67 6.18 134.44 6.88Q134.21 7.58 134.21 8.62L134.21 8.62L134.21 10.11L138.88 10.11L138.88 12.18L134.30 12.18L134.30 26ZM145.52 26L142.66 26L142.66 12.22L140.86 12.02Q140.53 11.94 140.31 11.77Q140.10 11.60 140.10 11.28L140.10 11.28L140.10 10.11L142.66 10.11L142.66 8.54Q142.66 7.15 143.05 6.07Q143.44 4.99 144.17 4.25Q144.90 3.50 145.92 3.12Q146.94 2.74 148.22 2.74L148.22 2.74Q149.31 2.74 150.22 3.06L150.22 3.06L150.16 4.48Q150.13 4.86 149.74 4.90Q149.34 4.93 148.69 4.93L148.69 4.93Q147.95 4.93 147.35 5.12Q146.75 5.31 146.32 5.74Q145.89 6.18 145.66 6.88Q145.42 7.58 145.42 8.62L145.42 8.62L145.42 10.11L150.10 10.11L150.10 12.18L145.52 12.18L145.52 26ZM154.80 16.13L163.66 16.13Q163.66 15.14 163.38 14.31Q163.10 13.49 162.57 12.89Q162.03 12.29 161.26 11.96Q160.50 11.63 159.52 11.63L159.52 11.63Q157.47 11.63 156.28 12.82Q155.09 14.02 154.80 16.13L154.80 16.13ZM165.17 22.69L165.97 23.73Q165.44 24.37 164.70 24.84Q163.97 25.31 163.13 25.62Q162.29 25.92 161.39 26.07Q160.50 26.22 159.62 26.22L159.62 26.22Q157.94 26.22 156.52 25.66Q155.10 25.09 154.07 23.99Q153.04 22.90 152.46 21.28Q151.89 19.66 151.89 17.57L151.89 17.57Q151.89 15.87 152.41 14.40Q152.93 12.93 153.90 11.85Q154.88 10.77 156.29 10.15Q157.70 9.54 159.46 9.54L159.46 9.54Q160.91 9.54 162.15 10.02Q163.39 10.51 164.30 11.43Q165.20 12.35 165.71 13.70Q166.22 15.06 166.22 16.78L166.22 16.78Q166.22 17.46 166.08 17.68Q165.94 17.90 165.54 17.90L165.54 17.90L154.70 17.90Q154.75 19.44 155.13 20.58Q155.50 21.71 156.18 22.47Q156.85 23.23 157.78 23.61Q158.70 23.98 159.86 23.98L159.86 23.98Q160.93 23.98 161.70 23.74Q162.48 23.49 163.04 23.20Q163.60 22.91 163.98 22.66Q164.35 22.42 164.62 22.42L164.62 22.42Q164.98 22.42 165.17 22.69L165.17 22.69ZM171.70 16.13L180.56 16.13Q180.56 15.14 180.28 14.31Q180.00 13.49 179.46 12.89Q178.93 12.29 178.16 11.96Q177.39 11.63 176.42 11.63L176.42 11.63Q174.37 11.63 173.18 12.82Q171.98 14.02 171.70 16.13L171.70 16.13ZM182.06 22.69L182.86 23.73Q182.34 24.37 181.60 24.84Q180.86 25.31 180.02 25.62Q179.18 25.92 178.29 26.07Q177.39 26.22 176.51 26.22L176.51 26.22Q174.83 26.22 173.42 25.66Q172.00 25.09 170.97 23.99Q169.94 22.90 169.36 21.28Q168.78 19.66 168.78 17.57L168.78 17.57Q168.78 15.87 169.30 14.40Q169.82 12.93 170.80 11.85Q171.78 10.77 173.18 10.15Q174.59 9.54 176.35 9.54L176.35 9.54Q177.81 9.54 179.05 10.02Q180.29 10.51 181.19 11.43Q182.10 12.35 182.61 13.70Q183.12 15.06 183.12 16.78L183.12 16.78Q183.12 17.46 182.98 17.68Q182.83 17.90 182.43 17.90L182.43 17.90L171.60 17.90Q171.65 19.44 172.02 20.58Q172.40 21.71 173.07 22.47Q173.74 23.23 174.67 23.61Q175.60 23.98 176.75 23.98L176.75 23.98Q177.82 23.98 178.60 23.74Q179.38 23.49 179.94 23.20Q180.50 22.91 180.87 22.66Q181.25 22.42 181.52 22.42L181.52 22.42Q181.87 22.42 182.06 22.69L182.06 22.69Z"/></svg><text fill="#ffffff" font-family="Verdana" font-size="16px" x="143.13453216552733" y="181.90482425689697"><tspan dy="0" x="143.13453216552733">Sip Relax Repeat</tspan></text></svg>