<?xml version="1.0" encoding="UTF-8"?>
<svg version="1.1" xmlns="http://www.w3.org/2000/svg" width="202" height="211">
<path d="M0 0 C3.77054549 2.08372251 5.38261502 5.59055529 7.375 9.3125 C8.17164062 8.71501953 8.17164062 8.71501953 8.984375 8.10546875 C11.11458333 6.5078125 13.24479167 4.91015625 15.375 3.3125 C16.06980469 2.75175781 16.76460938 2.19101563 17.48046875 1.61328125 C19.375 0.3125 19.375 0.3125 21.9375 0.3125 C25.16105953 1.63498596 25.93390945 3.20277828 27.375 6.3125 C27.375 6.9725 27.375 7.6325 27.375 8.3125 C31.70037853 8.3125 32.00653396 8.17831388 34.9375 5.4375 C40.51367973 0.29598907 40.51367973 0.29598907 43.8203125 0.359375 C47.30972297 1.66123456 48.29804504 3.42931907 50.25 6.5625 C50.86617187 7.51640625 51.48234375 8.4703125 52.1171875 9.453125 C53.53004988 12.66497363 53.44105934 14.03047463 52.375 17.3125 C51.385 17.3125 50.395 17.3125 49.375 17.3125 C49.375 17.9725 49.375 18.6325 49.375 19.3125 C48.529375 20.055 47.68375 20.7975 46.8125 21.5625 C44.06321034 24.06663866 44.06321034 24.06663866 44.3125 27.25 C45.27228311 30.43070241 45.27228311 30.43070241 47.375 33.3125 C51.10487677 38.90731516 51.19661503 45.97964339 49.9609375 52.49609375 C49.22704432 55.48095781 48.34681702 58.39704894 47.375 61.3125 C48.674375 61.51875 49.97375 61.725 51.3125 61.9375 C62.06209903 64.11192032 75.22523946 67.60389458 83.375 75.3125 C83.375 75.9725 83.375 76.6325 83.375 77.3125 C84.365 77.6425 85.355 77.9725 86.375 78.3125 C93.42193399 88.06979322 90.96613759 104.01673808 89.375 115.3125 C87.44091979 124.22407533 84.69234887 132.82502762 81.375 141.3125 C81.92027344 141.45945313 82.46554688 141.60640625 83.02734375 141.7578125 C92.53883157 144.58687041 100.89178341 149.84288867 106.375 158.3125 C108.32771541 165.58977082 107.99954498 171.6883316 104.375 178.3125 C101.65956735 181.44569151 99.23293617 183.74074823 95.375 185.3125 C95.375 185.9725 95.375 186.6325 95.375 187.3125 C79.22553832 195.17190469 79.22553832 195.17190469 70.375 197.3125 C69.47136719 197.55484375 68.56773437 197.7971875 67.63671875 198.046875 C29.12613174 207.4467194 -25.93961407 209.36918272 -61.828125 189.54296875 C-69.90221035 184.52308584 -69.90221035 184.52308584 -72.625 181.3125 C-72.625 180.6525 -72.625 179.9925 -72.625 179.3125 C-73.285 179.3125 -73.945 179.3125 -74.625 179.3125 C-77.72143989 172.8272525 -79.3936628 168.3871512 -77.625 161.3125 C-75.02766604 154.68929839 -70.29163903 150.44761497 -64.625 146.3125 C-63.965 146.3125 -63.305 146.3125 -62.625 146.3125 C-62.625 145.6525 -62.625 144.9925 -62.625 144.3125 C-63.285 144.10625 -63.945 143.9 -64.625 143.6875 C-68.69680186 141.82125748 -72.31296998 139.33688473 -75.625 136.3125 C-75.625 135.6525 -75.625 134.9925 -75.625 134.3125 C-76.285 134.3125 -76.945 134.3125 -77.625 134.3125 C-85.17195416 125.11067155 -89.51029693 116.38885815 -88.625 104.3125 C-87.31228502 95.47244468 -82.50592966 88.88210495 -75.625 83.3125 C-71.17936761 80.72235401 -66.95572704 80.20775144 -61.875 79.9375 C-57.67307718 79.76986716 -57.67307718 79.76986716 -54.5625 77.125 C-53.923125 76.196875 -53.28375 75.26875 -52.625 74.3125 C-46.53610942 70.00493379 -39.85115004 66.35545734 -32.5859375 64.5625 C-24.15680582 62.39224081 -19.58286573 59.52647316 -14.625 52.3125 C-13.03387231 49.13024461 -13.28767214 46.85444252 -13.625 43.3125 C-14.41350655 41.97259026 -15.2523939 40.66172425 -16.125 39.375 C-20.0258968 32.84742484 -19.68147719 25.60583566 -18.625 18.3125 C-17.1334463 14.53601297 -15.39672646 11.29964562 -12.625 8.3125 C-11.965 8.3125 -11.305 8.3125 -10.625 8.3125 C-10.295 7.3225 -9.965 6.3325 -9.625 5.3125 C-6.796618 2.54494342 -3.96495584 0.47201855 0 0 Z M34.375 20.3125 C35.375 22.3125 35.375 22.3125 35.375 22.3125 Z M-10.625 23.3125 C-10.625 25.2925 -10.625 27.2725 -10.625 29.3125 C-10.295 29.3125 -9.965 29.3125 -9.625 29.3125 C-9.625 27.3325 -9.625 25.3525 -9.625 23.3125 C-9.955 23.3125 -10.285 23.3125 -10.625 23.3125 Z M33.375 23.3125 C33.375 25.2925 33.375 27.2725 33.375 29.3125 C33.705 29.3125 34.035 29.3125 34.375 29.3125 C34.375 27.3325 34.375 25.3525 34.375 23.3125 C34.045 23.3125 33.715 23.3125 33.375 23.3125 Z M34.375 29.3125 C35.375 32.3125 35.375 32.3125 35.375 32.3125 Z M80.375 89.3125 C81.375 91.3125 81.375 91.3125 81.375 91.3125 Z M80.375 99.3125 C80.375 100.9625 80.375 102.6125 80.375 104.3125 C80.705 104.3125 81.035 104.3125 81.375 104.3125 C81.375 102.6625 81.375 101.0125 81.375 99.3125 C81.045 99.3125 80.715 99.3125 80.375 99.3125 Z M-30.625 154.3125 C-32.09340364 155.19172934 -33.5494174 156.09166989 -35 157 C-35.81210937 157.49886719 -36.62421875 157.99773437 -37.4609375 158.51171875 C-39.95517721 160.58725035 -40.67530695 162.24947902 -41.625 165.3125 C-35.49026638 173.41911229 -29.23210695 174.76944228 -19.625 177.3125 C-18.89796875 177.53164062 -18.1709375 177.75078125 -17.421875 177.9765625 C5.96186034 184.78834627 41.6510066 182.99875437 63.5625 172.375 C66.42240937 170.6985014 68.41915979 168.98548162 70.375 166.3125 C70.28998029 162.74167202 69.37913395 161.31870093 67.375 158.3125 C65.40884339 157.2474985 63.40773074 156.24416826 61.375 155.3125 C60.385 154.8175 60.385 154.8175 59.375 154.3125 C56.96366753 155.63480879 56.96366753 155.63480879 54.3125 157.5 C36.00490307 169.44386674 15.48680228 171.15162208 -5.56787109 166.78613281 C-12.82017942 165.11636327 -18.59102011 161.97138605 -24.6171875 157.6796875 C-26.55809921 156.35805502 -28.50318008 155.31156319 -30.625 154.3125 Z " fill="#CAC4AE" transform="translate(90.625,7.6875)"/>
<path d="M0 0 C3.77054549 2.08372251 5.38261502 5.59055529 7.375 9.3125 C8.17164062 8.71501953 8.17164062 8.71501953 8.984375 8.10546875 C11.11458333 6.5078125 13.24479167 4.91015625 15.375 3.3125 C16.06980469 2.75175781 16.76460938 2.19101563 17.48046875 1.61328125 C19.375 0.3125 19.375 0.3125 21.9375 0.3125 C25.16105953 1.63498596 25.93390945 3.20277828 27.375 6.3125 C27.375 6.9725 27.375 7.6325 27.375 8.3125 C31.70037853 8.3125 32.00653396 8.17831388 34.9375 5.4375 C40.51367973 0.29598907 40.51367973 0.29598907 43.8203125 0.359375 C47.30972297 1.66123456 48.29804504 3.42931907 50.25 6.5625 C50.86617187 7.51640625 51.48234375 8.4703125 52.1171875 9.453125 C53.53004988 12.66497363 53.44105934 14.03047463 52.375 17.3125 C51.385 17.3125 50.395 17.3125 49.375 17.3125 C49.375 17.9725 49.375 18.6325 49.375 19.3125 C48.529375 20.055 47.68375 20.7975 46.8125 21.5625 C44.06321034 24.06663866 44.06321034 24.06663866 44.3125 27.25 C45.27228311 30.43070241 45.27228311 30.43070241 47.375 33.3125 C51.10487677 38.90731516 51.19661503 45.97964339 49.9609375 52.49609375 C49.22704432 55.48095781 48.34681702 58.39704894 47.375 61.3125 C48.674375 61.51875 49.97375 61.725 51.3125 61.9375 C62.06209903 64.11192032 75.22523946 67.60389458 83.375 75.3125 C83.375 75.9725 83.375 76.6325 83.375 77.3125 C84.365 77.6425 85.355 77.9725 86.375 78.3125 C93.42193399 88.06979322 90.96613759 104.01673808 89.375 115.3125 C87.44091979 124.22407533 84.69234887 132.82502762 81.375 141.3125 C81.92027344 141.45945313 82.46554688 141.60640625 83.02734375 141.7578125 C92.53883157 144.58687041 100.89178341 149.84288867 106.375 158.3125 C108.32771541 165.58977082 107.99954498 171.6883316 104.375 178.3125 C101.65956735 181.44569151 99.23293617 183.74074823 95.375 185.3125 C95.375 185.9725 95.375 186.6325 95.375 187.3125 C79.22553832 195.17190469 79.22553832 195.17190469 70.375 197.3125 C69.47136719 197.55484375 68.56773437 197.7971875 67.63671875 198.046875 C29.12613174 207.4467194 -25.93961407 209.36918272 -61.828125 189.54296875 C-69.90221035 184.52308584 -69.90221035 184.52308584 -72.625 181.3125 C-72.625 180.6525 -72.625 179.9925 -72.625 179.3125 C-73.285 179.3125 -73.945 179.3125 -74.625 179.3125 C-77.72143989 172.8272525 -79.3936628 168.3871512 -77.625 161.3125 C-75.02766604 154.68929839 -70.29163903 150.44761497 -64.625 146.3125 C-63.965 146.3125 -63.305 146.3125 -62.625 146.3125 C-62.625 145.6525 -62.625 144.9925 -62.625 144.3125 C-63.285 144.10625 -63.945 143.9 -64.625 143.6875 C-68.69680186 141.82125748 -72.31296998 139.33688473 -75.625 136.3125 C-75.625 135.6525 -75.625 134.9925 -75.625 134.3125 C-76.285 134.3125 -76.945 134.3125 -77.625 134.3125 C-85.17195416 125.11067155 -89.51029693 116.38885815 -88.625 104.3125 C-87.31228502 95.47244468 -82.50592966 88.88210495 -75.625 83.3125 C-71.17936761 80.72235401 -66.95572704 80.20775144 -61.875 79.9375 C-57.67307718 79.76986716 -57.67307718 79.76986716 -54.5625 77.125 C-53.923125 76.196875 -53.28375 75.26875 -52.625 74.3125 C-46.53610942 70.00493379 -39.85115004 66.35545734 -32.5859375 64.5625 C-24.15680582 62.39224081 -19.58286573 59.52647316 -14.625 52.3125 C-13.03387231 49.13024461 -13.28767214 46.85444252 -13.625 43.3125 C-14.41350655 41.97259026 -15.2523939 40.66172425 -16.125 39.375 C-20.0258968 32.84742484 -19.68147719 25.60583566 -18.625 18.3125 C-17.1334463 14.53601297 -15.39672646 11.29964562 -12.625 8.3125 C-11.965 8.3125 -11.305 8.3125 -10.625 8.3125 C-10.295 7.3225 -9.965 6.3325 -9.625 5.3125 C-6.796618 2.54494342 -3.96495584 0.47201855 0 0 Z M34.375 20.3125 C35.375 22.3125 35.375 22.3125 35.375 22.3125 Z M-10.625 23.3125 C-10.625 25.2925 -10.625 27.2725 -10.625 29.3125 C-10.295 29.3125 -9.965 29.3125 -9.625 29.3125 C-9.625 27.3325 -9.625 25.3525 -9.625 23.3125 C-9.955 23.3125 -10.285 23.3125 -10.625 23.3125 Z M33.375 23.3125 C33.375 25.2925 33.375 27.2725 33.375 29.3125 C33.705 29.3125 34.035 29.3125 34.375 29.3125 C34.375 27.3325 34.375 25.3525 34.375 23.3125 C34.045 23.3125 33.715 23.3125 33.375 23.3125 Z M34.375 29.3125 C35.375 32.3125 35.375 32.3125 35.375 32.3125 Z M-50.3125 84 C-51.87180276 86.3041753 -51.87180276 86.3041753 -51.625 89.3125 C-52.71039063 89.26609375 -53.79578125 89.2196875 -54.9140625 89.171875 C-56.35934731 89.13433513 -57.80466211 89.09793736 -59.25 89.0625 C-60.31927734 89.01222656 -60.31927734 89.01222656 -61.41015625 88.9609375 C-66.63846152 88.86500529 -69.46286844 89.89207377 -73.625 93.3125 C-78.13238892 97.78776976 -79.79808612 101.11251221 -79.9375 107.4375 C-79.80437031 117.54426255 -75.85590009 122.73799452 -69.04296875 129.984375 C-61.41469047 137.3292116 -52.60599577 140.745329 -42.5 143.4375 C-41.55125 143.72625 -40.6025 144.015 -39.625 144.3125 C-39.295 144.9725 -38.965 145.6325 -38.625 146.3125 C-39.65625 146.43625 -40.6875 146.56 -41.75 146.6875 C-45.24616846 147.25139814 -48.30897627 148.09932059 -51.625 149.3125 C-51.625 150.3025 -51.625 151.2925 -51.625 152.3125 C-50.96113281 152.0959375 -50.29726563 151.879375 -49.61328125 151.65625 C-48.73027344 151.3778125 -47.84726562 151.099375 -46.9375 150.8125 C-46.06738281 150.5340625 -45.19726562 150.255625 -44.30078125 149.96875 C-41.55544654 149.29544163 -39.43344123 148.97548705 -36.625 149.3125 C-34.51238055 151.06519169 -33.26007818 153.07010706 -31.625 155.3125 C-32.45644531 155.76689453 -32.45644531 155.76689453 -33.3046875 156.23046875 C-37.99723874 158.87130713 -37.99723874 158.87130713 -41.125 163.125 C-41.29 163.846875 -41.455 164.56875 -41.625 165.3125 C-35.49026638 173.41911229 -29.23210695 174.76944228 -19.625 177.3125 C-18.89796875 177.53164062 -18.1709375 177.75078125 -17.421875 177.9765625 C5.96186034 184.78834627 41.6510066 182.99875437 63.5625 172.375 C66.42240937 170.6985014 68.41915979 168.98548162 70.375 166.3125 C70.28998029 162.74167202 69.37913395 161.31870093 67.375 158.3125 C64.82316596 157.10799696 64.82316596 157.10799696 62.375 156.3125 C62.94881478 152.98437429 63.96880748 151.61407545 66.375 149.3125 C66.375 148.6525 66.375 147.9925 66.375 147.3125 C67.035 147.3125 67.695 147.3125 68.375 147.3125 C77.82253713 129.16637414 77.82253713 129.16637414 79.61303711 109.28710938 C79.37249083 106.28114444 79.42869631 103.42727349 79.59375 100.41796875 C79.65949219 98.95520508 79.65949219 98.95520508 79.7265625 97.46289062 C79.82658656 95.46635783 79.9574667 93.47116142 80.1171875 91.47851562 C80.3700517 85.94315086 80.3700517 85.94315086 77.59741211 81.39404297 C75.25923371 79.78238336 72.94534541 78.51624515 70.375 77.3125 C69.39200928 76.82656372 69.39200928 76.82656372 68.38916016 76.33081055 C60.99221961 72.89587981 53.41809313 70.58407472 45.375 69.3125 C44.74207031 69.14492187 44.10914063 68.97734375 43.45703125 68.8046875 C17.66971753 62.70862459 -30.16710759 63.85460759 -50.3125 84 Z M80.375 89.3125 C81.375 91.3125 81.375 91.3125 81.375 91.3125 Z M80.375 99.3125 C80.375 100.9625 80.375 102.6125 80.375 104.3125 C80.705 104.3125 81.035 104.3125 81.375 104.3125 C81.375 102.6625 81.375 101.0125 81.375 99.3125 C81.045 99.3125 80.715 99.3125 80.375 99.3125 Z " fill="#DADADA" transform="translate(90.625,7.6875)"/>
<path d="M0 0 C0.33 0.66 0.66 1.32 1 2 C1.99 2 2.98 2 4 2 C4 2.99 4 3.98 4 5 C5.37671875 5.54527344 5.37671875 5.54527344 6.78125 6.1015625 C24.05729322 13.11458645 24.05729322 13.11458645 27 19 C27.35555556 26.46666667 27.35555556 26.46666667 25 30 C25.66 30 26.32 30 27 30 C25.31785311 35.04644066 20.52189196 36.81140124 15.93164062 39.12890625 C5.85706522 43.67214248 -5.96965094 46.91547138 -16.96875 45.19140625 C-20.40339992 44.86775655 -23.60503113 45.45438 -27 46 C-27.33 46.99 -27.66 47.98 -28 49 C-35.66559435 49.82713431 -43.22958464 50.1596312 -50.9375 50.125 C-52.50757812 50.12209961 -52.50757812 50.12209961 -54.109375 50.11914062 C-61.11765482 50.07986633 -68.03741286 49.85505456 -75 49 C-74.505 48.01 -74.505 48.01 -74 47 C-76.74908445 46.63685675 -79.49883451 46.28419159 -82.25 45.9375 C-83.02730469 45.83373047 -83.80460937 45.72996094 -84.60546875 45.62304688 C-85.35957031 45.52958984 -86.11367187 45.43613281 -86.890625 45.33984375 C-87.58188477 45.25081787 -88.27314453 45.16179199 -88.98535156 45.07006836 C-91.18340733 44.99362119 -92.8890866 45.41884026 -95 46 C-97.47265625 46.01953125 -97.47265625 46.01953125 -100.0625 45.8125 C-100.91972656 45.75707031 -101.77695313 45.70164063 -102.66015625 45.64453125 C-105.65491944 44.81959648 -106.29889698 43.51723915 -108 41 C-111.57333659 39.85097761 -111.57333659 39.85097761 -115 41 C-116.61609989 39.92260008 -118.22272576 38.82500119 -119.75 37.625 C-122.10301035 35.84195208 -122.10301035 35.84195208 -125.375 34.25 C-129.42878694 31.93355032 -132.79211287 29.17981685 -135 25 C-135.20612029 22.04922527 -134.6856871 19.938659 -134 17 C-134 16.01 -134 15.02 -134 14 C-130.24090906 10.41991339 -125.46445227 6 -120 6 C-120 6.66 -120 7.32 -120 8 C-119.33613281 7.71125 -118.67226562 7.4225 -117.98828125 7.125 C-117.10527344 6.75375 -116.22226563 6.3825 -115.3125 6 C-114.44238281 5.62875 -113.57226562 5.2575 -112.67578125 4.875 C-109.84629923 3.94973873 -107.947268 3.57342174 -105 4 C-103.19921875 5.53125 -103.19921875 5.53125 -101.6875 7.5 C-100.91986328 8.47453125 -100.91986328 8.47453125 -100.13671875 9.46875 C-99.76160156 9.9740625 -99.38648438 10.479375 -99 11 C-99.55429688 11.30292969 -100.10859375 11.60585937 -100.6796875 11.91796875 C-105.37223874 14.55880713 -105.37223874 14.55880713 -108.5 18.8125 C-108.665 19.534375 -108.83 20.25625 -109 21 C-108.21625 21.78375 -107.4325 22.5675 -106.625 23.375 C-105.08333333 24.91666667 -103.54166667 26.45833333 -102 28 C-97.39578573 29.54682264 -92.68900782 30.73677506 -88 32 C-86.90558594 32.33064453 -86.90558594 32.33064453 -85.7890625 32.66796875 C-62.32981703 39.48036973 -26.70774358 37.66555312 -4.74609375 26.99609375 C-2.29650353 25.59867651 -0.57371483 24.36057225 1 22 C0.91666667 19.41666667 0.91666667 19.41666667 0 17 C-0.33 16.01 -0.66 15.02 -1 14 C-2.65 13.67 -4.3 13.34 -6 13 C-6.8125 11.375 -6.8125 11.375 -7 9 C-4.6875 5.75 -4.6875 5.75 -2 3 C-1.34 3 -0.68 3 0 3 C0 2.01 0 1.02 0 0 Z " fill="#CCC6B0" transform="translate(159,152)"/>
<path d="M0 0 C2.11356466 3.26641812 2.04082355 5.32980575 1.375 9.125 C-8.96605638 20.52667755 -28.14903392 22.17396102 -42.625 23.125 C-62.62245648 24.04737271 -90.18771868 25.23498981 -106.9375 12.125 C-108.71906854 10.33888665 -109.72882425 8.93218354 -110.9375 6.6875 C-110.40928139 2.35610737 -107.86151762 -0.10273696 -104.625 -2.875 C-79.27650621 -19.30855741 -24.29069238 -17.35049456 0 0 Z " fill="#8C603F" transform="translate(159.625,92.875)"/>
<path d="M0 0 C0 0.66 0 1.32 0 2 C-0.83917969 1.9278125 -1.67835938 1.855625 -2.54296875 1.78125 C-27.73002684 -0.1624458 -64.65470173 -2.72088641 -85.66796875 14.35546875 C-88.15322946 16.72934523 -89.8697545 18.64244117 -90.203125 22.1171875 C-90.57609058 44.0599955 -85.61266503 65.17329482 -71 82 C-71 82.66 -71 83.32 -71 84 C-73.46800047 82.84826645 -75.04783565 81.95216435 -77 80 C-82.2595548 80.35657999 -86.98125763 81.43164301 -92 83 C-92 82.01 -92 81.02 -92 80 C-90.58603098 79.49242138 -89.16868271 78.99425075 -87.75 78.5 C-86.96109375 78.2215625 -86.1721875 77.943125 -85.359375 77.65625 C-83 77 -83 77 -79 77 C-80.67561474 73.77934471 -80.67561474 73.77934471 -83.65234375 73.26171875 C-84.73644531 73.07222656 -85.82054687 72.88273437 -86.9375 72.6875 C-99.15423016 70.06097036 -108.28264493 63.87846057 -115.6328125 53.75 C-120.20100959 46.64971652 -120.7353339 40.39937738 -120 32 C-117.56773441 26.76127412 -113.20316085 22.60158043 -108 20 C-105.28239892 19.92818179 -102.59140612 19.90700494 -99.875 19.9375 C-99.12089844 19.94201172 -98.36679688 19.94652344 -97.58984375 19.95117188 C-95.72652873 19.96296501 -93.86325445 19.98090058 -92 20 C-91.87625 19.39027344 -91.7525 18.78054687 -91.625 18.15234375 C-90.27930708 13.51811375 -86.13895957 10.91016368 -82.1875 8.5 C-58.65913687 -3.7656057 -25.52809479 -5.78774619 0 0 Z " fill="#1C1C1B" transform="translate(131,77)"/>
<path d="M0 0 C0.72525879 0.17265381 1.45051758 0.34530762 2.19775391 0.52319336 C9.13105447 2.26850446 16.72258214 4.55097156 21.4375 10.25 C21.625 12.9375 21.625 12.9375 21.4375 15.25 C17.92627361 15.25 15.91885342 14.29997365 12.6875 12.9375 C5.35831764 10.04029801 -1.81659111 8.56316668 -9.5625 7.25 C-10.47491455 7.07726562 -11.3873291 6.90453125 -12.32739258 6.7265625 C-18.60222376 5.8022194 -24.97975887 6.00591756 -31.3125 6 C-32.05382172 5.99899292 -32.79514343 5.99798584 -33.55892944 5.99694824 C-49.5293603 6.0116498 -66.21961234 6.76207187 -80.6953125 14.37109375 C-82.5625 15.25 -82.5625 15.25 -85.5625 15.25 C-86.0625 12.5625 -86.0625 12.5625 -85.5625 9.25 C-83.22858252 6.95530802 -80.4987698 5.64732454 -77.5625 4.25 C-76.82257813 3.8890625 -76.08265625 3.528125 -75.3203125 3.15625 C-53.40734931 -6.08499965 -22.78812055 -5.47120435 0 0 Z " fill="#C4BFAA" transform="translate(137.5625,85.75)"/>
<path d="M0 0 C2.11356466 3.26641812 2.04082355 5.32980575 1.375 9.125 C-8.96605638 20.52667755 -28.14903392 22.17396102 -42.625 23.125 C-62.62245648 24.04737271 -90.18771868 25.23498981 -106.9375 12.125 C-108.71906854 10.33888665 -109.72882425 8.93218354 -110.9375 6.6875 C-110.40928139 2.35610737 -107.86151762 -0.10273696 -104.625 -2.875 C-79.27650621 -19.30855741 -24.29069238 -17.35049456 0 0 Z M-101.625 -1.875 C-102.32367188 -1.545 -103.02234375 -1.215 -103.7421875 -0.875 C-105.64107979 0.08349155 -105.64107979 0.08349155 -107.625 2.125 C-108.12669415 5.29426564 -108.12669415 5.29426564 -107.625 8.125 C-104.23440432 7.54205548 -101.37764479 6.6656708 -98.25 5.25 C-85.24743468 -0.11087775 -70.77879521 -1.0779342 -56.87670898 -1.11523438 C-54.72403754 -1.12483701 -52.57236592 -1.15587185 -50.41992188 -1.1875 C-33.95839943 -1.31296605 -16.29970977 1.36899724 -1.625 9.125 C-0.39985711 8.08623766 -0.39985711 8.08623766 -0.1875 5.875 C-0.7049251 2.62261365 -1.78806509 1.34759092 -4.3984375 -0.61328125 C-30.31878765 -15.30147967 -75.15793436 -14.82524619 -101.625 -1.875 Z M-86.625 3.125 C-88.28982422 3.48464844 -88.28982422 3.48464844 -89.98828125 3.8515625 C-95.45629177 5.19821732 -99.89187512 7.07476397 -104.625 10.125 C-96.77644463 18.86769459 -80.95842968 19.87543713 -70 20.8125 C-67.54289223 20.94240334 -65.08419791 21.04376523 -62.625 21.125 C-61.85945801 21.15223145 -61.09391602 21.17946289 -60.30517578 21.20751953 C-30.98387828 22.36047882 -30.98387828 22.36047882 -4.7578125 11.46875 C-4.19707031 10.80359375 -4.19707031 10.80359375 -3.625 10.125 C-27.70926158 -3.35579243 -60.30569045 -2.570326 -86.625 3.125 Z " fill="#1D1B19" transform="translate(159.625,92.875)"/>
<path d="M0 0 C1.27230469 0.00902344 2.54460938 0.01804687 3.85546875 0.02734375 C5.31919922 0.04474609 5.31919922 0.04474609 6.8125 0.0625 C6.8125 3.3625 6.8125 6.6625 6.8125 10.0625 C5.04132812 10.08376953 5.04132812 10.08376953 3.234375 10.10546875 C1.67704458 10.15237629 0.1197541 10.20062365 -1.4375 10.25 C-2.21480469 10.25580078 -2.99210937 10.26160156 -3.79296875 10.26757812 C-8.82979269 10.45701591 -8.82979269 10.45701591 -12.734375 13.61328125 C-13.45367187 14.82564453 -13.45367187 14.82564453 -14.1875 16.0625 C-12.5375 14.7425 -10.8875 13.4225 -9.1875 12.0625 C-8.5275 12.3925 -7.8675 12.7225 -7.1875 13.0625 C-7.5175 13.3925 -7.8475 13.7225 -8.1875 14.0625 C-8.73763917 17.28474369 -8.64440981 19.33746348 -6.8828125 22.1328125 C-5.81369154 23.51908896 -4.71917846 24.88623292 -3.59765625 26.23046875 C-2.1875 28.0625 -2.1875 28.0625 -1.1875 31.0625 C0.61182579 32.12966704 0.61182579 32.12966704 2.8125 33.0625 C3.616875 33.5575 4.42125 34.0525 5.25 34.5625 C7.71110376 36.1673149 7.71110376 36.1673149 10.375 36.6875 C14.3104898 38.90751989 15.42136374 42.89686292 16.8125 47.0625 C16.8125 47.7225 16.8125 48.3825 16.8125 49.0625 C3.17361011 47.11823272 -5.54865144 41.412392 -14.08203125 30.6796875 C-18.41271264 24.37129446 -19.47617752 18.61982919 -18.1875 11.0625 C-16.4375 7.5625 -16.4375 7.5625 -14.1875 5.0625 C-13.506875 4.299375 -12.82625 3.53625 -12.125 2.75 C-8.39914694 -0.49509782 -4.73165705 -0.0434097 0 0 Z " fill="#C5BFAA" transform="translate(31.1875,98.9375)"/>
<path d="M0 0 C0.37125 0.515625 0.7425 1.03125 1.125 1.5625 C1.74375 2.366875 2.3625 3.17125 3 4 C3.39058594 4.53238281 3.78117187 5.06476563 4.18359375 5.61328125 C15.97403757 20.67699276 38.65145088 24.63059343 56.625 27.1875 C91.45121736 31.31261799 143.81096759 33.9731883 173.51171875 11.0625 C175.40239156 9.42589666 177.22705299 7.76251791 179 6 C179.33 6.66 179.66 7.32 180 8 C175.375 12.875 175.375 12.875 172 14 C172 14.66 172 15.32 172 16 C155.85053832 23.85940469 155.85053832 23.85940469 147 26 C145.64455078 26.36351562 145.64455078 26.36351562 144.26171875 26.734375 C105.75113174 36.1342194 50.68538593 38.05668272 14.796875 18.23046875 C6.72278965 13.21058584 6.72278965 13.21058584 4 10 C4 9.34 4 8.68 4 8 C3.34 8 2.68 8 2 8 C1.01 5.69 0.02 3.38 -1 1 C-0.67 0.67 -0.34 0.34 0 0 Z " fill="#F6F5F4" transform="translate(14,179)"/>
<path d="M0 0 C1.081604 0.00483398 2.16320801 0.00966797 3.27758789 0.01464844 C20.89163884 0.14761478 39.21035874 1.43597053 54 12 C56.11356466 15.26641812 56.04082355 17.32980575 55.375 21.125 C46.49332018 30.91762134 30.94084088 33.30836361 18.375 34.125 C13.01986068 34.23937671 7.66843894 34.21990095 2.3125 34.1875 C0.86002759 34.18247414 -0.59244651 34.17791316 -2.04492188 34.17382812 C-5.57165015 34.16291042 -9.09831402 34.14570586 -12.625 34.125 C-12.625 33.795 -12.625 33.465 -12.625 33.125 C-11.97764893 33.11041748 -11.33029785 33.09583496 -10.66333008 33.08081055 C21.13046527 33.83744217 21.13046527 33.83744217 49.375 22.125 C37.02163658 16.64855124 25.67353365 14.65881861 12.375 13.125 C12.375 12.795 12.375 12.465 12.375 12.125 C26.0594788 9.45250179 40.15222895 14.01361448 52.375 20.125 C52.79370553 17.79428121 52.79370553 17.79428121 52.375 15.125 C38.79395717 2.14980295 14.11094703 3.07329867 -3.3125 2.5625 C-4.70769161 2.51917913 -6.10287402 2.47556122 -7.49804688 2.43164062 C-10.8736196 2.32651898 -14.24925393 2.22437123 -17.625 2.125 C-17.625 1.795 -17.625 1.465 -17.625 1.125 C-11.76626145 -0.1433867 -5.96216845 -0.02751558 0 0 Z " fill="#0F0D0C" transform="translate(105.625,80.875)"/>
<path d="M0 0 C1.79244141 0.01740234 1.79244141 0.01740234 3.62109375 0.03515625 C5.41740234 0.04869141 5.41740234 0.04869141 7.25 0.0625 C8.17683594 0.07410156 9.10367188 0.08570312 10.05859375 0.09765625 C10.14423584 0.65227539 10.22987793 1.20689453 10.31811523 1.77832031 C10.70886933 4.30173161 11.10245301 6.82469372 11.49609375 9.34765625 C11.63080078 10.22035156 11.76550781 11.09304687 11.90429688 11.9921875 C12.10249023 13.25869141 12.10249023 13.25869141 12.3046875 14.55078125 C12.42513428 15.32583008 12.54558105 16.10087891 12.66967773 16.89941406 C13.04089568 18.99762271 13.51498413 21.03809377 14.05859375 23.09765625 C7.36791971 22.16708715 2.63360128 18.12707687 -1.66796875 13.06640625 C-4.00884081 9.66625689 -4.96926251 7.86370327 -4.81640625 3.66015625 C-3.60749412 0.11977072 -3.60749412 0.11977072 0 0 Z " fill="#D2D2D2" transform="translate(28.94140625,110.90234375)"/>
<path d="M0 0 C0.66 0 1.32 0 2 0 C-0.47936917 5.76483866 -5.10116638 7.83881949 -10.75 10.1015625 C-37.48392811 19.0356048 -75.27706226 20.8966604 -101.44921875 8.875 C-101.96097656 8.58625 -102.47273438 8.2975 -103 8 C-99.59938865 6.83786447 -97.62507383 7.17851819 -94.25 8.3125 C-93.363125 8.59480469 -92.47625 8.87710938 -91.5625 9.16796875 C-90.716875 9.44253906 -89.87125 9.71710938 -89 10 C-64.58723781 17.32382866 -28.8128302 15.94752483 -5.734375 5.015625 C-3.44688588 3.67610434 -1.75734874 1.96823059 0 0 Z " fill="#E7E0C8" transform="translate(160,174)"/>
<path d="M0 0 C0.33 0 0.66 0 1 0 C1.12060791 1.21731812 1.12060791 1.21731812 1.24365234 2.45922852 C1.61417437 6.16101316 1.99449558 9.86172867 2.375 13.5625 C2.50132813 14.83931641 2.62765625 16.11613281 2.7578125 17.43164062 C3.39018989 23.51827304 4.12381003 29.17734148 6 35 C6.125 38.4375 6.125 38.4375 6 41 C-4.73499724 36.51515671 -10.5868101 31.61978485 -17 22 C-17.125 18.8125 -17.125 18.8125 -17 16 C-17.99 16.66 -18.98 17.32 -20 18 C-20.66 18 -21.32 18 -22 18 C-20.84826645 15.53199953 -19.95216435 13.95216435 -18 12 C-16.12060547 11.77294922 -16.12060547 11.77294922 -13.8671875 11.8046875 C-12.65869141 11.81435547 -12.65869141 11.81435547 -11.42578125 11.82421875 C-10.16314453 11.84935547 -10.16314453 11.84935547 -8.875 11.875 C-7.60076172 11.88853516 -7.60076172 11.88853516 -6.30078125 11.90234375 C-4.20040116 11.92594353 -2.10016556 11.96181517 0 12 C0 8.04 0 4.08 0 0 Z M-13 14 C-15.22844642 16.76337022 -15.22844642 16.76337022 -15.0625 19.625 C-12.71246017 27.08983241 -7.41168195 32.29346092 -0.796875 36.22265625 C1.13259725 37.19852372 1.13259725 37.19852372 4 37 C2.68 29.41 1.36 21.82 0 14 C-2.10375 13.938125 -4.2075 13.87625 -6.375 13.8125 C-7.55835938 13.77769531 -8.74171875 13.74289063 -9.9609375 13.70703125 C-10.96382812 13.80371094 -11.96671875 13.90039062 -13 14 Z " fill="#131312" transform="translate(39,97)"/>
<path d="M0 0 C4.68463219 2.78150036 4.68463219 2.78150036 6.69140625 4.171875 C21.99563757 14.52379765 43.73863123 15.63761151 61.50390625 12.31640625 C68.90976828 10.32220206 75.47279179 6.98000501 82 3 C83.39025391 2.16662109 83.39025391 2.16662109 84.80859375 1.31640625 C85.53175781 0.88199219 86.25492187 0.44757813 87 0 C85.50709096 3.90387134 83.37512929 5.38345015 79.875 7.5625 C78.96492188 8.14128906 78.05484375 8.72007812 77.1171875 9.31640625 C60.64233968 18.21447568 39.67130754 18.88966778 21.91015625 13.94140625 C13.31871153 11.16216037 5.89713944 7.90313994 -1 2 C-0.67 1.34 -0.34 0.68 0 0 Z " fill="#E5DFC3" transform="translate(62,161)"/>
<path d="M0 0 C3.77054549 2.08372251 5.38261502 5.59055529 7.375 9.3125 C7.90609375 8.91417969 8.4371875 8.51585937 8.984375 8.10546875 C12.1796875 5.70898438 12.1796875 5.70898438 15.375 3.3125 C16.06980469 2.75175781 16.76460937 2.19101563 17.48046875 1.61328125 C19.375 0.3125 19.375 0.3125 21.9375 0.3125 C25.16105953 1.63498596 25.93390945 3.20277828 27.375 6.3125 C27.375 6.9725 27.375 7.6325 27.375 8.3125 C31.70037853 8.3125 32.00653396 8.17831388 34.9375 5.4375 C40.47062337 0.33568914 40.47062337 0.33568914 43.8125 0.25 C47.80461114 1.9052656 48.604441 4.43088988 50.375 8.3125 C50.045 8.9725 49.715 9.6325 49.375 10.3125 C47.725 8.0025 46.075 5.6925 44.375 3.3125 C39.25319631 4.59295092 36.64037208 7.28334953 32.71484375 10.6953125 C31.55662109 11.49582031 31.55662109 11.49582031 30.375 12.3125 C26.84266245 11.13505415 26.51191925 10.35644359 24.6875 7.25 C24.25050781 6.51652344 23.81351563 5.78304688 23.36328125 5.02734375 C22.87408203 4.17849609 22.87408203 4.17849609 22.375 3.3125 C17.80288092 4.02530253 15.62799096 6.73990869 12.47265625 9.9140625 C10.375 11.3125 10.375 11.3125 7.765625 11.20703125 C4.21537141 9.87858669 3.15883769 7.54983506 1.375 4.3125 C1.375 3.6525 1.375 2.9925 1.375 2.3125 C-5.21776654 4.5955075 -11.52812247 9.46351166 -14.6875 15.8125 C-15.1515625 17.05 -15.1515625 17.05 -15.625 18.3125 C-16.375 16.6875 -16.375 16.6875 -16.625 14.3125 C-14.8125 11.0625 -14.8125 11.0625 -12.625 8.3125 C-11.965 8.3125 -11.305 8.3125 -10.625 8.3125 C-10.295 7.3225 -9.965 6.3325 -9.625 5.3125 C-6.796618 2.54494342 -3.96495584 0.47201855 0 0 Z " fill="#F3F3F2" transform="translate(90.625,7.6875)"/>
<path d="M0 0 C0.66 0 1.32 0 2 0 C-0.1632994 5.91787191 -2.96859473 10.12863224 -8 14 C-12.3600024 15.99475814 -16.98085806 17.24013552 -21.56640625 18.60546875 C-28.57692527 20.71621063 -35.19514066 23.65734251 -40 29.3125 C-41.85264363 31.37809117 -42.67375781 31.94389466 -45.453125 32.421875 C-47.34207485 32.51685013 -49.23143776 32.60389397 -51.12109375 32.68359375 C-57.82934662 33.42086442 -63.25812562 36.77065206 -67.625 41.8125 C-68.40875 42.864375 -69.1925 43.91625 -70 45 C-70.495 43.515 -70.495 43.515 -71 42 C-63.79581207 34.04537582 -58.99532175 30.22354577 -48.25 29.625 C-44.04807718 29.45736716 -44.04807718 29.45736716 -40.9375 26.8125 C-40.298125 25.884375 -39.65875 24.95625 -39 24 C-32.91110942 19.69243379 -26.22615004 16.04295734 -18.9609375 14.25 C-10.53180582 12.07974081 -5.95786573 9.21397316 -1 2 C-0.67 1.34 -0.34 0.68 0 0 Z " fill="#F6F6F6" transform="translate(77,58)"/>
<path d="M0 0 C0.33 1.32 0.66 2.64 1 4 C2.299375 4.20625 3.59875 4.4125 4.9375 4.625 C15.68709903 6.79942032 28.85023946 10.29139458 37 18 C37 18.66 37 19.32 37 20 C37.99 20.33 38.98 20.66 40 21 C47.01890802 30.71848802 44.63899466 46.7589706 43 58 C41.9609375 60.87109375 41.9609375 60.87109375 41 63 C39.73952807 59.63874152 40.27514613 56.86901319 40.73999023 53.38525391 C41.22775874 48.91060762 41.26676438 44.43483627 41.3125 39.9375 C41.34150391 38.98294922 41.37050781 38.02839844 41.40039062 37.04492188 C41.45670627 30.76789325 40.68542709 27.12200523 37 22 C27.10734436 12.10734436 13.07452938 9.48425562 0 6 C-0.38218767 4.34385343 -0.71395102 2.67542976 -1 1 C-0.67 0.67 -0.34 0.34 0 0 Z " fill="#ECECEB" transform="translate(137,65)"/>
<path d="M0 0 C0.66 0 1.32 0 2 0 C1.95359375 1.05058594 1.9071875 2.10117188 1.859375 3.18359375 C1.60432674 11.28813864 1.45999392 17.97897652 6 25 C6.57105469 25.90363281 7.14210938 26.80726563 7.73046875 27.73828125 C12.04353269 34.10026578 16.70560358 38.64598142 23 43 C24.33664456 43.99556974 25.67098936 44.99426222 27 46 C25.55045593 49.58489393 23.78504187 51.08731354 20.625 53.25 C16.01195139 56.67450146 14.13419044 59.71091934 12 65 C11.34 64.34 10.68 63.68 10 63 C12.9113867 56.41107219 17.2258279 52.21358505 23 48 C23.66 48 24.32 48 25 48 C25 47.34 25 46.68 25 46 C24.34 45.79375 23.68 45.5875 23 45.375 C18.92819814 43.50875748 15.31203002 41.02438473 12 38 C12 37.34 12 36.68 12 36 C11.34 36 10.68 36 10 36 C2.36577367 26.69176259 -1.62201121 18.0574481 -1 6 C-0.71325582 3.99279077 -0.39764263 1.98821313 0 0 Z " fill="#F5F5F4" transform="translate(3,106)"/>
<path d="M0 0 C0.66 0 1.32 0 2 0 C2.1952124 0.56807373 2.3904248 1.13614746 2.59155273 1.72143555 C8.25043126 17.9531796 14.43599148 34.66489984 30.80810547 42.91064453 C34.80596244 44.77913148 38.87494067 46.43081317 43 48 C42.505 48.99 42.505 48.99 42 50 C28.25485903 46.86932798 17.96960765 39.15158531 10.28515625 27.37109375 C5.44967628 18.91823181 1.34665613 9.68723604 0 0 Z " fill="#1C1C1A" transform="translate(52,117)"/>
<path d="M0 0 C1.71388916 -0.0009668 1.71388916 -0.0009668 3.46240234 -0.00195312 C11.21279775 0.04667334 18.60493837 0.46837672 26.1875 2.1875 C26.1875 2.8475 26.1875 3.5075 26.1875 4.1875 C25.34832031 4.1153125 24.50914062 4.043125 23.64453125 3.96875 C4.81629305 2.51576699 -14.02535644 2.53301277 -32.6640625 5.87890625 C-35.8125 6.1875 -35.8125 6.1875 -38.8125 4.1875 C-36.35515762 3.70273891 -33.89680092 3.22464066 -31.4375 2.75 C-30.75816406 2.61529297 -30.07882813 2.48058594 -29.37890625 2.34179688 C-19.59840642 0.4679628 -9.94738965 -0.00580785 0 0 Z " fill="#202020" transform="translate(104.8125,74.8125)"/>
<path d="M0 0 C0.33 0 0.66 0 1 0 C1.85129163 7.32110805 -1.19987083 13.34969322 -4 20 C-3.45472656 20.14695313 -2.90945312 20.29390625 -2.34765625 20.4453125 C7.16383157 23.27437041 15.51678341 28.53038867 21 37 C22.48361653 42.43992727 22.79988888 48.60033335 21 54 C20.34 54 19.68 54 19 54 C19.10699219 53.3709375 19.21398437 52.741875 19.32421875 52.09375 C20.22117554 45.68967139 19.67925543 41.87375228 17 36 C16.67 35.01 16.34 34.02 16 33 C15.34 33 14.68 33 14 33 C13.46890625 32.42765625 12.9378125 31.8553125 12.390625 31.265625 C9.20172567 28.2434655 5.68883664 26.62895034 1.75 24.75 C1.00492188 24.38648438 0.25984375 24.02296875 -0.5078125 23.6484375 C-2.33498087 22.75827855 -4.16701834 21.8781261 -6 21 C-5.34065816 16.13451192 -4.03428754 11.74092364 -2.4375 7.125 C-2.20353516 6.43664062 -1.96957031 5.74828125 -1.72851562 5.0390625 C-1.15647501 3.35796355 -0.57881544 1.67877837 0 0 Z " fill="#F1F1F1" transform="translate(176,129)"/>
<path d="M0 0 C1.71349598 2.57024396 3.03890055 5.106643 4.36108398 7.88769531 C7.27433201 13.99103394 10.3707336 19.03200679 15 24 C15 24.66 15 25.32 15 26 C12.53199953 24.84826645 10.95216435 23.95216435 9 22 C3.7404452 22.35657999 -0.98125763 23.43164301 -6 25 C-6 24.01 -6 23.02 -6 22 C-4.58603098 21.49242138 -3.16868271 20.99425075 -1.75 20.5 C-0.96109375 20.2215625 -0.1721875 19.943125 0.640625 19.65625 C3 19 3 19 7 19 C4.74259377 16.66475218 2.7194239 14.81294927 0 13 C0.99 13 1.98 13 3 13 C2.505 11.96875 2.01 10.9375 1.5 9.875 C0.02526098 6.47548422 -0.27291106 3.72978451 0 0 Z " fill="#0E0E0D" transform="translate(45,135)"/>
<path d="M0 0 C-1.84832107 0.64208118 -3.70423674 1.26228744 -5.5625 1.875 C-6.59503906 2.22304687 -7.62757813 2.57109375 -8.69140625 2.9296875 C-20.38797744 6.16937992 -32.41081893 6.27599232 -44.4375 6.125 C-45.86262377 6.11492845 -47.2877546 6.10581014 -48.71289062 6.09765625 C-52.14207846 6.07602292 -55.57099067 6.04173497 -59 6 C-59 5.67 -59 5.34 -59 5 C-58.35264893 4.98541748 -57.70529785 4.97083496 -57.03833008 4.95581055 C-45.46768311 4.66708 -33.97063068 4.24928073 -22.5 2.625 C-21.67218018 2.51115967 -20.84436035 2.39731934 -19.99145508 2.2800293 C-15.05779665 1.52699458 -10.65092356 0.29154328 -6.02539062 -1.59619141 C-3.39145842 -2.12132688 -2.23458742 -1.38627183 0 0 Z " fill="#0A0908" transform="translate(152,109)"/>
<path d="M0 0 C0.99 0.99 1.98 1.98 3 3 C2.195625 4.010625 1.39125 5.02125 0.5625 6.0625 C-2.00412459 9.6894111 -3 12.46846872 -3 17 C-2.01642648 19.00812926 -1.01691264 21.00854609 0 23 C-0.3125 26.375 -0.3125 26.375 -1 29 C-5.4297122 24.99216516 -7.46518316 20.89022097 -8 14.99609375 C-8 11.94850188 -7.35711962 9.71423925 -6 7 C-3.875 5.625 -3.875 5.625 -2 5 C-2 4.01 -2 3.02 -2 2 C-1.34 1.34 -0.68 0.68 0 0 Z M-5 9 C-4 11 -4 11 -4 11 Z M-6 12 C-6 13.98 -6 15.96 -6 18 C-5.67 18 -5.34 18 -5 18 C-5 16.02 -5 14.04 -5 12 C-5.33 12 -5.66 12 -6 12 Z M-5 18 C-4 21 -4 21 -4 21 Z " fill="#EAEAE9" transform="translate(130,19)"/>
<path d="M0 0 C1.61044189 0.00507568 1.61044189 0.00507568 3.25341797 0.01025391 C23.21240628 0.14058595 23.21240628 0.14058595 30.375 3.125 C30.375 3.455 30.375 3.785 30.375 4.125 C29.42367187 4.06441406 28.47234375 4.00382812 27.4921875 3.94140625 C12.46475289 3.0281469 -2.57839469 2.58785799 -17.625 2.125 C-17.625 1.795 -17.625 1.465 -17.625 1.125 C-11.76598056 -0.14344751 -5.96237937 -0.02662186 0 0 Z " fill="#0F0F0E" transform="translate(105.625,80.875)"/>
<path d="M0 0 C-0.50580203 4.42576775 -2.1179562 6.66763686 -5 10 C-6.26237731 12.52475462 -6.09856404 14.31200466 -6.0625 17.125 C-6.04896484 18.49011719 -6.04896484 18.49011719 -6.03515625 19.8828125 C-6.02355469 20.58148438 -6.01195313 21.28015625 -6 22 C-6.66 22.33 -7.32 22.66 -8 23 C-9.5 22 -9.5 22 -11 20 C-11.75621955 13.62614947 -10.47334723 9.35820118 -7 4 C-3.7 0 -3.7 0 0 0 Z M-10 13 C-10 14.98 -10 16.96 -10 19 C-9.67 19 -9.34 19 -9 19 C-9 17.02 -9 15.04 -9 13 C-9.33 13 -9.66 13 -10 13 Z " fill="#E9E9E8" transform="translate(90,18)"/>
<path d="M0 0 C0.66 0 1.32 0 2 0 C2.25523438 0.85271484 2.25523438 0.85271484 2.515625 1.72265625 C3.73528834 5.60871125 4.90696768 9.04510673 7.1875 12.4375 C9.57432939 17.12885432 9.81549957 20.832478 9 26 C7.49781318 30.33802242 5.51371257 33.98429393 2 37 C1.34 37 0.68 37 0 37 C0.97547296 35.0139019 1.96617987 33.05875322 3.0703125 31.140625 C5.63987982 26.53443765 7.29533178 22.30335112 6 17 C4.58056321 14.12420466 3.02849136 11.41997941 1.3125 8.7109375 C-0.20040744 5.5860632 -0.24133601 3.42898243 0 0 Z " fill="#202020" transform="translate(102,33)"/>
<path d="M0 0 C0.66 0.33 1.32 0.66 2 1 C1.71125 2.010625 1.4225 3.02125 1.125 4.0625 C0.97333375 8.33171957 0.97333375 8.33171957 3.1875 11.5625 C7.53653702 16.12847236 13.31272341 18.48765937 19 21 C17.02 21.99 17.02 21.99 15 23 C15 22.34 15 21.68 15 21 C14.27167969 21.05671875 13.54335938 21.1134375 12.79296875 21.171875 C9.4954242 20.96894918 8.01680694 20.10490663 5.3125 18.25 C4.54550781 17.73953125 3.77851563 17.2290625 2.98828125 16.703125 C0.87583889 14.89364589 0.08831557 13.52449456 -1 11 C-1.66 10.01 -2.32 9.02 -3 8 C-2.75 4.375 -2.75 4.375 -2 1 C-1.34 0.67 -0.68 0.34 0 0 Z " fill="#DAD6C6" transform="translate(24,169)"/>
<path d="M0 0 C0.66 0.33 1.32 0.66 2 1 C3.0690003 4.20700089 3.13332529 6.56992069 3.125 9.9375 C3.12757813 10.97777344 3.13015625 12.01804687 3.1328125 13.08984375 C3.01801068 15.60535421 2.62403629 17.58738727 2 20 C1.93451508 21.58211573 1.91421619 23.16670081 1.9375 24.75 C1.94652344 25.54921875 1.95554688 26.3484375 1.96484375 27.171875 C1.97644531 27.77515625 1.98804688 28.3784375 2 29 C-1.91929585 25.08070415 -1.12854444 19.07248866 -1.13671875 13.81640625 C-1.13285156 12.96949219 -1.12898437 12.12257813 -1.125 11.25 C-1.12886719 10.38761719 -1.13273438 9.52523437 -1.13671875 8.63671875 C-1.13542969 7.81300781 -1.13414062 6.98929687 -1.1328125 6.140625 C-1.13168457 5.39329102 -1.13055664 4.64595703 -1.12939453 3.87597656 C-1 2 -1 2 0 0 Z M1 4 C2 6 2 6 2 6 Z " fill="#D2CFBF" transform="translate(170,93)"/>
<path d="M0 0 C0.99 0.33 1.98 0.66 3 1 C3 1.66 3 2.32 3 3 C3.78375 3.0825 4.5675 3.165 5.375 3.25 C8 4 8 4 9.3125 6.0625 C9.6528125 7.0215625 9.6528125 7.0215625 10 8 C10.66 8 11.32 8 12 8 C12.98497223 12.06301046 13.30933684 15.82395272 13 20 C11.5 21.9375 11.5 21.9375 10 23 C9.34 22.67 8.68 22.34 8 22 C8.33 21.01 8.66 20.02 9 19 C9.6677254 13.11202749 9.6677254 13.11202749 6.8125 8.1875 C4.28697716 6.22320445 1.8097736 4.52530567 -1 3 C-0.67 2.01 -0.34 1.02 0 0 Z " fill="#D9D4C3" transform="translate(176,160)"/>
<path d="M0 0 C0.66 0 1.32 0 2 0 C1.95359375 1.05058594 1.9071875 2.10117188 1.859375 3.18359375 C1.53703952 13.54896406 2.51233988 20.37506331 8.8125 28.875 C9.534375 29.90625 10.25625 30.9375 11 32 C10.67 32.99 10.34 33.98 10 35 C6.77473362 31.19879319 4.40960025 27.33728044 2 23 C1.34 22.01 0.68 21.02 0 20 C-1.55953531 13.29399815 -1.34412617 6.72063084 0 0 Z " fill="#EEEEED" transform="translate(3,106)"/>
<path d="M0 0 C0.66 0 1.32 0 2 0 C1.52781605 6.92536464 -1.17647451 12.72180803 -4 19 C-4.35578125 19.83015625 -4.7115625 20.6603125 -5.078125 21.515625 C-6.0625 23.6875 -6.0625 23.6875 -8 27 C-10.12109375 27.70703125 -10.12109375 27.70703125 -12 28 C-10.86231341 24.79379234 -9.41553892 21.97516938 -7.6875 19.0625 C-4.2617758 13.04709144 -2.18649174 6.54086677 0 0 Z " fill="#1A1A18" transform="translate(167,128)"/>
<path d="M0 0 C8.78105465 4.20189726 8.78105465 4.20189726 11.19921875 7.88671875 C10.94921875 10.63671875 10.94921875 10.63671875 10.19921875 12.88671875 C9.97234375 12.30921875 9.74546875 11.73171875 9.51171875 11.13671875 C6.51861557 6.00568473 1.74201352 4.07825698 -3.67578125 2.19921875 C-4.84882813 1.78285156 -6.021875 1.36648437 -7.23046875 0.9375 C-10.76161824 -0.10175516 -14.1492035 -0.6883534 -17.80078125 -1.11328125 C-12.13043394 -4.60779761 -5.84047997 -2.32152969 0 0 Z " fill="#1D1D1B" transform="translate(149.80078125,87.11328125)"/>
<path d="M0 0 C0.66 0.66 1.32 1.32 2 2 C-4.82870712 7.29357141 -11.68472097 9.8151508 -20 12 C-20.66 11.34 -21.32 10.68 -22 10 C-21.0821875 9.69707031 -20.164375 9.39414063 -19.21875 9.08203125 C-12.26098053 6.7067423 -6.06389365 4.24472555 0 0 Z " fill="#BBB7AB" transform="translate(182,183)"/>
<path d="M0 0 C0.33 1.32 0.66 2.64 1 4 C2.299375 4.20625 3.59875 4.4125 4.9375 4.625 C12.88649328 6.18497559 20.4202691 9.20376517 28 12 C27.34 12.66 26.68 13.32 26 14 C25.04480469 13.67386719 24.08960938 13.34773438 23.10546875 13.01171875 C15.46179357 10.42153288 7.82405172 8.00074503 0 6 C-0.38218767 4.34385343 -0.71395102 2.67542976 -1 1 C-0.67 0.67 -0.34 0.34 0 0 Z " fill="#F5F5F4" transform="translate(137,65)"/>
<path d="M0 0 C0.99 0.33 1.98 0.66 3 1 C4.94207252 6.82621755 4.89139928 12.84394859 2.25 18.4375 C0.60253625 21.34998056 -1.04243049 23.30996028 -4 25 C-3.39246975 21.59783062 -2.04845528 19.73127371 0 17 C2.05047555 11.78060768 1.33404319 5.33617274 0 0 Z " fill="#232323" transform="translate(85,45)"/>
<path d="M0 0 C4.56521068 0.55872728 8.04167956 1.77590177 12.125 3.875 C13.13820312 4.38804688 14.15140625 4.90109375 15.1953125 5.4296875 C17.67549239 6.8183119 19.90200708 8.08269547 22 10 C22 10.99 22 11.98 22 13 C19.29410066 11.80940429 17.29967326 10.45688947 14.9375 8.625 C10.41890906 5.30018527 5.29273818 3.71320097 0 2 C0 1.34 0 0.68 0 0 Z " fill="#161615" transform="translate(148,81)"/>
<path d="M0 0 C13.6332574 0.96355353 13.6332574 0.96355353 20 2 C19.01 3.485 19.01 3.485 18 5 C14.9375 5.25 14.9375 5.25 12 5 C11.67 4.67 11.34 4.34 11 4 C10.0925 4.061875 9.185 4.12375 8.25 4.1875 C4.23636611 3.9559442 2.97346303 2.57396715 0 0 Z " fill="#E2DCCB" transform="translate(66,196)"/>
<path d="M0 0 C-0.55429687 0.30292969 -1.10859375 0.60585937 -1.6796875 0.91796875 C-6.37223874 3.55880713 -6.37223874 3.55880713 -9.5 7.8125 C-9.665 8.534375 -9.83 9.25625 -10 10 C-8.824375 11.1446875 -8.824375 11.1446875 -7.625 12.3125 C-5 15 -5 15 -3 18 C-6.89835017 16.70054994 -9.60392154 15.40980397 -12 12 C-12.25 8.625 -12.25 8.625 -11 5 C-4.66883117 -1.55627706 -4.66883117 -1.55627706 0 0 Z " fill="#E3DDC1" transform="translate(60,163)"/>
<path d="M0 0 C-2.70239953 2.70239953 -5.81824127 3.4274359 -9.375 4.5625 C-10.38433594 4.89411133 -10.38433594 4.89411133 -11.4140625 5.23242188 C-14.58533876 6.26558373 -17.74703687 7.25765713 -21 8 C-21 7.34 -21 6.68 -21 6 C-14.152939 2.33637775 -7.94597089 -0.38760834 0 0 Z " fill="#161615" transform="translate(69,80)"/>
<path d="M0 0 C-0.33 0.66 -0.66 1.32 -1 2 C-3.41049357 2.67470042 -5.73684824 3.21595279 -8.1875 3.6875 C-8.84814453 3.82994141 -9.50878906 3.97238281 -10.18945312 4.11914062 C-14.415181 4.9576118 -17.80839443 4.97130518 -22 4 C-18.75972157 2.15505678 -15.79552055 1.46340406 -12.125 0.875 C-11.11695312 0.70742187 -10.10890625 0.53984375 -9.0703125 0.3671875 C-6.01438252 0.00172005 -3.07442109 -0.06424163 0 0 Z " fill="#1F1F1E" transform="translate(88,76)"/>
<path d="M0 0 C0.37125 0.515625 0.7425 1.03125 1.125 1.5625 C6.06904731 8.13803831 6.06904731 8.13803831 12.375 13.3125 C13.24125 13.869375 14.1075 14.42625 15 15 C15 15.66 15 16.32 15 17 C10.39860359 15.51131293 7.49772906 13.25370145 4 10 C4 9.34 4 8.68 4 8 C3.34 8 2.68 8 2 8 C1.01 5.69 0.02 3.38 -1 1 C-0.67 0.67 -0.34 0.34 0 0 Z " fill="#F2F2F1" transform="translate(14,179)"/>
<path d="M0 0 C-3.16216947 1.8738782 -5.36165739 2.09833358 -9 2 C-9.33 2.33 -9.66 2.66 -10 3 C-11.85772162 2.91015699 -13.71247985 2.75388139 -15.5625 2.5625 C-17.08037109 2.40974609 -17.08037109 2.40974609 -18.62890625 2.25390625 C-19.41136719 2.17011719 -20.19382812 2.08632812 -21 2 C-21 1.67 -21 1.34 -21 1 C-13.73633891 -0.33979115 -7.29654052 -1.43069422 0 0 Z " fill="#DBD5C1" transform="translate(148,197)"/>
<path d="M0 0 C0.64775391 0.86431641 0.64775391 0.86431641 1.30859375 1.74609375 C2.38242914 3.17704761 3.45777404 4.60687092 4.53515625 6.03515625 C5.03917969 6.70417969 5.54320312 7.37320313 6.0625 8.0625 C6.56910156 8.73410156 7.07570313 9.40570313 7.59765625 10.09765625 C8.77792898 11.69875045 9.896642 13.344963 11 15 C5.96173232 14.16210235 3.8793154 10.96813214 1 7 C-0.875 3.5625 -0.875 3.5625 -2 1 C-1.34 0.67 -0.68 0.34 0 0 Z " fill="#1B1A19" transform="translate(14,123)"/>
<path d="M0 0 C-2.93626007 0.38910684 -5.87302605 0.76176981 -8.8125 1.125 C-9.64587891 1.23714844 -10.47925781 1.34929687 -11.33789062 1.46484375 C-12.54155273 1.60986328 -12.54155273 1.60986328 -13.76953125 1.7578125 C-14.50792236 1.8520752 -15.24631348 1.94633789 -16.00708008 2.04345703 C-18 2 -18 2 -21 0 C-6.67578947 -3.71368421 -6.67578947 -3.71368421 0 0 Z " fill="#262522" transform="translate(92,84)"/>
<path d="M0 0 C0.33 0 0.66 0 1 0 C1.39271781 3.12304165 1.76113726 6.24847572 2.125 9.375 C2.23714844 10.26445313 2.34929688 11.15390625 2.46484375 12.0703125 C2.56152344 12.92109375 2.65820312 13.771875 2.7578125 14.6484375 C2.8520752 15.43395996 2.94633789 16.21948242 3.04345703 17.02880859 C3 19 3 19 1 21 C-0.50382815 13.65485589 -1.23649903 7.4189942 0 0 Z " fill="#1F1E1D" transform="translate(40,109)"/>
<path d="M0 0 C0.99 0.33 1.98 0.66 3 1 C2.31292969 1.58007812 1.62585938 2.16015625 0.91796875 2.7578125 C-0.43361328 3.92957031 -0.43361328 3.92957031 -1.8125 5.125 C-2.70582031 5.89070312 -3.59914063 6.65640625 -4.51953125 7.4453125 C-7.12334612 10.12703679 -8.51340609 12.59219337 -10 16 C-10.75 14.375 -10.75 14.375 -11 12 C-9.1875 8.75 -9.1875 8.75 -7 6 C-6.34 6 -5.68 6 -5 6 C-4.67 5.01 -4.34 4.02 -4 3 C-2.125 1.25 -2.125 1.25 0 0 Z " fill="#F6F6F6" transform="translate(85,10)"/>
<path d="M0 0 C2.97 0.33 5.94 0.66 9 1 C2.21149019 4.3942549 -4.57019731 4.13454371 -12 4 C-12 3.67 -12 3.34 -12 3 C-10.35 3 -8.7 3 -7 3 C-7 2.34 -7 1.68 -7 1 C-4.69 1.33 -2.38 1.66 0 2 C0 1.34 0 0.68 0 0 Z " fill="#EBEBE8" transform="translate(138,198)"/>
<path d="M0 0 C0.99 0.99 1.98 1.98 3 3 C1.02 5.97 -0.96 8.94 -3 12 C-3.33 11.01 -3.66 10.02 -4 9 C-4.66 9 -5.32 9 -6 9 C-5 7 -5 7 -2 5 C-2 4.01 -2 3.02 -2 2 C-1.34 1.34 -0.68 0.68 0 0 Z " fill="#F2F2F2" transform="translate(130,19)"/>
<path d="M0 0 C3.66172475 0.62678171 6.8818995 1.64451846 10.3125 3.0625 C11.19550781 3.42472656 12.07851562 3.78695312 12.98828125 4.16015625 C13.65214844 4.43730469 14.31601563 4.71445313 15 5 C14.67 5.66 14.34 6.32 14 7 C3.25740319 4.29384966 3.25740319 4.29384966 0 0 Z " fill="#171614" transform="translate(80,160)"/>
<path d="M0 0 C0.99 0.33 1.98 0.66 3 1 C3 1.66 3 2.32 3 3 C-1.95 2.67 -6.9 2.34 -12 2 C-7.23742739 -0.38128631 -5.21224242 -0.24820202 0 0 Z " fill="#383735" transform="translate(128,76)"/>
<path d="M0 0 C0.33 0 0.66 0 1 0 C0.66556792 6.46568686 -0.33545709 9.44922643 -5 14 C-5.66 14 -6.32 14 -7 14 C-4.66666667 9.33333333 -2.33333333 4.66666667 0 0 Z " fill="#191919" transform="translate(109,56)"/>
<path d="M0 0 C0.66 0.66 1.32 1.32 2 2 C-3.91684902 6.90153173 -3.91684902 6.90153173 -8.4375 7.3125 C-9.283125 7.209375 -10.12875 7.10625 -11 7 C-7.54319097 4.23455278 -3.85658398 2.15078722 0 0 Z " fill="#AFACA0" transform="translate(182,183)"/>
<path d="M0 0 C1.60294922 0.15275391 1.60294922 0.15275391 3.23828125 0.30859375 C4.45064453 0.43427734 4.45064453 0.43427734 5.6875 0.5625 C1.85207543 3.11944972 0.02847467 2.60295639 -4.5 2.1875 C-6.40845703 2.02121094 -6.40845703 2.02121094 -8.35546875 1.8515625 C-9.33128906 1.75617188 -10.30710937 1.66078125 -11.3125 1.5625 C-11.3125 1.2325 -11.3125 0.9025 -11.3125 0.5625 C-7.36602382 -0.42594951 -4.03857036 -0.39941905 0 0 Z " fill="#201B16" transform="translate(129.3125,92.4375)"/>
<path d="M0 0 C1.77049689 -0.05410687 3.54146849 -0.09284119 5.3125 -0.125 C6.29863281 -0.14820312 7.28476563 -0.17140625 8.30078125 -0.1953125 C11 0 11 0 14 2 C13.67 2.66 13.34 3.32 13 4 C8.71 3.01 4.42 2.02 0 1 C0 0.67 0 0.34 0 0 Z " fill="#A6A5A0" transform="translate(135,79)"/>
<path d="M0 0 C-1 2 -1 2 -3.28515625 2.8515625 C-4.65994141 3.23441406 -4.65994141 3.23441406 -6.0625 3.625 C-6.98160156 3.88539063 -7.90070312 4.14578125 -8.84765625 4.4140625 C-9.55792969 4.60742188 -10.26820312 4.80078125 -11 5 C-11 4.01 -11 3.02 -11 2 C-9.54494642 1.47007308 -8.08581873 0.9513211 -6.625 0.4375 C-5.81289063 0.14746094 -5.00078125 -0.14257812 -4.1640625 -0.44140625 C-2 -1 -2 -1 0 0 Z " fill="#434340" transform="translate(50,155)"/>
<path d="M0 0 C0 0.66 0 1.32 0 2 C-1.423125 2.61875 -1.423125 2.61875 -2.875 3.25 C-6.00716624 5.0040131 -6.86500606 5.70851757 -8 9 C-8.99 8.67 -9.98 8.34 -11 8 C-4.73913043 0 -4.73913043 0 0 0 Z " fill="#CCCBC1" transform="translate(35,160)"/>
<path d="M0 0 C0.66 0.33 1.32 0.66 2 1 C1.278125 1.70125 0.55625 2.4025 -0.1875 3.125 C-2.99823813 5.92770745 -5.49516226 8.92262792 -8 12 C-8.33 11.01 -8.66 10.02 -9 9 C-6.03 6.03 -3.06 3.06 0 0 Z " fill="#F3F3F2" transform="translate(15,91)"/>
<path d="M0 0 C3.4826218 -0.39801392 4.80799236 -0.12373826 7.8125 1.8125 C10 4 10 4 10 7 C6.42032008 5.34784004 3.22017048 3.26875648 0 1 C0 0.67 0 0.34 0 0 Z " fill="#393835" transform="translate(160,87)"/>
<path d="M0 0 C0.99 0.33 1.98 0.66 3 1 C2.01 3.31 1.02 5.62 0 8 C-0.66 8 -1.32 8 -2 8 C-2.33 8.99 -2.66 9.98 -3 11 C-2.25 3.375 -2.25 3.375 0 0 Z " fill="#ADADAD" transform="translate(104,25)"/>
<path d="M0 0 C0.33 0.66 0.66 1.32 1 2 C1.94875 2.309375 2.8975 2.61875 3.875 2.9375 C6.84689902 3.94794567 8.06088831 4.62997461 10 7 C9.67 7.99 9.34 8.98 9 10 C7.5 8.625 7.5 8.625 6 7 C6 6.34 6 5.68 6 5 C4.35 4.67 2.7 4.34 1 4 C0.67 2.68 0.34 1.36 0 0 Z " fill="#E5E0C5" transform="translate(152,161)"/>
<path d="M0 0 C0.66 0.99 1.32 1.98 2 3 C0.75 5.9375 0.75 5.9375 -1 9 C-3.1875 9.875 -3.1875 9.875 -5 10 C-3.66511872 6.40608886 -2.03977277 3.24509304 0 0 Z " fill="#31302D" transform="translate(160,146)"/>
<path d="M0 0 C5.75 0.75 5.75 0.75 8 3 C8 3.66 8 4.32 8 5 C4.65626525 4.44271087 1.96687001 3.64826111 -1 2 C-0.67 1.34 -0.34 0.68 0 0 Z " fill="#DAD5C6" transform="translate(45,191)"/>
<path d="M0 0 C0.99 0.66 1.98 1.32 3 2 C-0.61328125 6.6875 -0.61328125 6.6875 -2 8 C-2.99 8 -3.98 8 -5 8 C-4.34 6.35 -3.68 4.7 -3 3 C-2.34 3 -1.68 3 -1 3 C-0.67 2.01 -0.34 1.02 0 0 Z " fill="#ADA998" transform="translate(154,155)"/>
<path d="M0 0 C1.66832577 2.50248865 2.62381674 4.41149187 3.625 7.1875 C4.01558594 8.26064453 4.01558594 8.26064453 4.4140625 9.35546875 C4.60742188 9.89816406 4.80078125 10.44085938 5 11 C4.34 11.66 3.68 12.32 3 13 C0.78145293 8.37802694 -0.38281159 5.23175837 0 0 Z " fill="#1F1E1C" transform="translate(45,135)"/>
<path d="M0 0 C0.66 0.33 1.32 0.66 2 1 C1.67 3.97 1.34 6.94 1 10 C0.01 9.67 -0.98 9.34 -2 9 C-1.34 6.03 -0.68 3.06 0 0 Z " fill="#827F75" transform="translate(169,119)"/>
<path d="M0 0 C-2.76223278 2.76223278 -5.20706617 2.57856291 -9 3 C-9 2.01 -9 1.02 -9 0 C-5.52176885 -1.15941038 -3.54104422 -0.70820884 0 0 Z " fill="#D2CEBC" transform="translate(158,195)"/>
<path d="M0 0 C4.875 4.625 4.875 4.625 6 8 C2.63408134 6.55746343 0.48952921 4.66735273 -2 2 C-1.34 1.34 -0.68 0.68 0 0 Z " fill="#272623" transform="translate(54,153)"/>
<path d="M0 0 C0.33 0 0.66 0 1 0 C1.33 2.31 1.66 4.62 2 7 C2.66 5.68 3.32 4.36 4 3 C4.33 5.31 4.66 7.62 5 10 C4.01 10.495 4.01 10.495 3 11 C1.5 10 1.5 10 0 8 C-0.27345479 5.28153765 -0.13491285 2.74322801 0 0 Z " fill="#EFEFEE" transform="translate(79,30)"/>
<path d="M0 0 C0.99 0.33 1.98 0.66 3 1 C2.6875 2.875 2.6875 2.875 2 5 C1.01 5.66 0.02 6.32 -1 7 C-1.66 5.68 -2.32 4.36 -3 3 C-2.01 2.01 -1.02 1.02 0 0 Z " fill="#EAEAE9" transform="translate(109,18)"/>
<path d="M0 0 C0.33 0.99 0.66 1.98 1 3 C-1.97 2.67 -4.94 2.34 -8 2 C-8 1.34 -8 0.68 -8 0 C-5.13822943 -1.43088528 -3.06624227 -0.59991697 0 0 Z " fill="#D5D0C0" transform="translate(62,195)"/>
<path d="M0 0 C2.64 0.33 5.28 0.66 8 1 C8 1.66 8 2.32 8 3 C4.7 3 1.4 3 -2 3 C-1.34 2.01 -0.68 1.02 0 0 Z " fill="#D5CDBE" transform="translate(86,198)"/>
<path d="M0 0 C0.66 0 1.32 0 2 0 C3.83691257 3.78187881 4.15837626 5.94568308 3 10 C1.11608215 6.73454239 0.50712033 3.71888239 0 0 Z " fill="#252421" transform="translate(52,117)"/>
<path d="M0 0 C2.71224618 1.61268692 5.37352812 3.24901874 8 5 C8 5.66 8 6.32 8 7 C4.06326356 5.68775452 1.77280706 4.08089673 -1 1 C-0.67 0.67 -0.34 0.34 0 0 Z " fill="#D9D3BD" transform="translate(62,161)"/>
<path d="M0 0 C7.75 0.75 7.75 0.75 10 3 C3.47692308 3.36923077 3.47692308 3.36923077 1.0625 1.5 C0.5365625 0.7575 0.5365625 0.7575 0 0 Z " fill="#DED4C0" transform="translate(66,196)"/>
<path d="M0 0 C0 0.99 0 1.98 0 3 C-4.34285714 7 -4.34285714 7 -7 7 C-5.66667905 3.00003714 -3.5042173 2.16217663 0 0 Z " fill="#DBD5BA" transform="translate(148,161)"/>
<path d="M0 0 C3.77545388 1.09068668 6.47043472 1.9083091 9 5 C8.236875 4.835 7.47375 4.67 6.6875 4.5 C3.96403764 3.90854604 3.96403764 3.90854604 1 4 C0.67 2.68 0.34 1.36 0 0 Z " fill="#EAE9E3" transform="translate(172,157)"/>
<path d="M0 0 C1.89213369 2.38573379 3.02391783 4.07175348 4 7 C3.01 7 2.02 7 1 7 C0.01 5.02 -0.98 3.04 -2 1 C-1.34 0.67 -0.68 0.34 0 0 Z " fill="#323130" transform="translate(14,123)"/>
<path d="M0 0 C0.515625 0.37125 1.03125 0.7425 1.5625 1.125 C-4.39453125 2.8828125 -4.39453125 2.8828125 -6.4375 3.125 C-7.4275 2.465 -8.4175 1.805 -9.4375 1.125 C-3.0375 -1.09038462 -3.0375 -1.09038462 0 0 Z " fill="#1F1B17" transform="translate(150.4375,107.875)"/>
</svg>
