<svg xmlns="http://www.w3.org/2000/svg" width="48" height="45" viewBox="0 0 48 45"><path d="M935.005,4115.558a3.007,3.007,0,1,0-5.989,0,.674.674,0,0,1-.624.426.678.678,0,0,1-.621-.951,7.728,7.728,0,0,1,2.557-3.328c-.142-.025-.275-.06-.415-.077a19.271,19.271,0,0,1-15.395-11.514,19.98,19.98,0,0,1-.407-15.036,19.316,19.316,0,0,1,10.078-10.924.666.666,0,0,1,.89.348.7.7,0,0,1-.339.911,17.966,17.966,0,0,0-9.372,10.156,18.577,18.577,0,0,0,.378,13.979,17.917,17.917,0,0,0,14.314,10.705,4.069,4.069,0,0,0,3.894,0,18.389,18.389,0,0,0,5.32-34.843.694.694,0,0,1-.339-.911.662.662,0,0,1,.888-.348,19.777,19.777,0,0,1-5.722,37.475c-.143.017-.276.051-.416.078a7.75,7.75,0,0,1,2.562,3.329.69.69,0,0,1-.364.9.649.649,0,0,1-.254.051A.677.677,0,0,1,935.005,4115.558Zm2.758-1.674-1.263-1.954.613-.417a2.651,2.651,0,0,1,3.731.776l1.264,1.955-.613.415a2.62,2.62,0,0,1-1.484.461A2.677,2.677,0,0,1,937.763,4113.883Zm-15.249.774-.613-.415,1.263-1.955a2.653,2.653,0,0,1,3.731-.776l.612.417-1.264,1.955a2.673,2.673,0,0,1-2.245,1.236A2.627,2.627,0,0,1,922.514,4114.657Zm-4.989-2.986-.5-.555,1.682-1.586a2.646,2.646,0,0,1,3.8.166l.5.554-1.682,1.585a2.646,2.646,0,0,1-3.8-.163Zm25.156.163L941,4110.25l.5-.554a2.641,2.641,0,0,1,3.8-.166l1.683,1.586-.5.555a2.643,2.643,0,0,1-3.8.163Zm-7.073-4.449a2.187,2.187,0,0,1,2.084-2.277l.587-.021.061,1.875a2.188,2.188,0,0,1-2.085,2.279l-.587.019Zm-7.858,1.855a2.185,2.185,0,0,1-2.082-2.279l.058-1.875.589.021a2.184,2.184,0,0,1,2.083,2.277l-.059,1.874Zm19.224-.6-2.006-1.126.355-.662a2.654,2.654,0,0,1,3.655-1.092l2,1.127-.352.661a2.68,2.68,0,0,1-2.362,1.433A2.625,2.625,0,0,1,946.975,4108.642Zm-33.6-1.1-.355-.661,2.006-1.126a2.657,2.657,0,0,1,3.655,1.094l.352.661-2,1.124a2.635,2.635,0,0,1-1.294.341A2.679,2.679,0,0,1,913.38,4107.545Zm25.692-1.489a2.217,2.217,0,0,1,1.493-2.726l.565-.163.494,1.808a2.209,2.209,0,0,1-1.49,2.723l-.565.166Zm-15.194,1.641a2.215,2.215,0,0,1-1.493-2.723l.5-1.81.565.164a2.219,2.219,0,0,1,1.49,2.725l-.494,1.805Zm18.246-3.782a2.244,2.244,0,0,1,.813-3.011l.513-.3.9,1.635a2.239,2.239,0,0,1-.813,3.01l-.513.3Zm-21.65,1.332a2.24,2.24,0,0,1-.813-3.01l.9-1.634.509.3a2.239,2.239,0,0,1,.813,3.012l-.9,1.635Zm-10.156-2.719-.189-.729,2.208-.6a2.685,2.685,0,0,1,3.294,1.957l.189.728-2.208.6a2.656,2.656,0,0,1-.7.093A2.7,2.7,0,0,1,910.316,4102.529Zm40.086,1.957-2.212-.6.19-.728a2.687,2.687,0,0,1,3.293-1.957l2.212.6-.19.729a2.709,2.709,0,0,1-2.6,2.05A2.63,2.63,0,0,1,950.4,4104.486Zm-5.816-3.4a2.248,2.248,0,0,1,.085-3.123l.428-.417,1.261,1.362a2.25,2.25,0,0,1-.087,3.123l-.432.416Zm-26.848.945a2.25,2.25,0,0,1-.086-3.123l1.256-1.362.426.417a2.25,2.25,0,0,1,.086,3.123l-1.256,1.361Zm35.018-2.424-2.284-.043.013-.755a2.723,2.723,0,0,1,2.742-2.71l2.284.042-.013.754a2.728,2.728,0,0,1-2.691,2.712Zm-44.244-2.711-.013-.754,2.284-.042a2.727,2.727,0,0,1,2.741,2.71l.015.755-2.288.043H911.2A2.727,2.727,0,0,1,908.512,4096.9Zm37.81.838a2.242,2.242,0,0,1-.646-3.053l.318-.507,1.537,1.013a2.248,2.248,0,0,1,.647,3.056l-.32.5Zm-30.49.509a2.249,2.249,0,0,1,.645-3.056l1.539-1.013.318.507a2.246,2.246,0,0,1-.645,3.053l-1.539,1.014Zm35.684-4.163a2.763,2.763,0,0,1,2.029-3.3l2.23-.519.162.734a2.767,2.767,0,0,1-2.029,3.306l-2.229.519Zm-41.415.216a2.767,2.767,0,0,1-2.029-3.306l.162-.734,2.229.519a2.768,2.768,0,0,1,2.03,3.3l-.163.735Zm37.119-.241a2.22,2.22,0,0,1-1.338-2.8l.19-.571,1.73.607a2.223,2.223,0,0,1,1.34,2.8l-.192.571Zm-32.351.037a2.218,2.218,0,0,1,1.338-2.8l1.729-.607.193.571a2.22,2.22,0,0,1-1.338,2.8l-1.732.608Zm.032-4.264a2.19,2.19,0,0,1,1.953-2.4l1.823-.165.053.6a2.194,2.194,0,0,1-1.956,2.4l-1.82.165Zm32.334.436a2.193,2.193,0,0,1-1.954-2.4l.051-.6,1.824.165a2.192,2.192,0,0,1,1.955,2.394l-.052.6Zm-37.013-1.41a2.8,2.8,0,0,1-1.2-3.706l.332-.674,2.042,1.05a2.8,2.8,0,0,1,1.2,3.708l-.329.674Zm41.192.376a2.8,2.8,0,0,1,1.2-3.709l2.046-1.05.325.674a2.793,2.793,0,0,1-1.2,3.706l-2.043,1.052Zm-7.5-4.5-.089-.6,1.806-.286a2.162,2.162,0,0,1,2.458,1.847l.089.6-1.806.286a2.128,2.128,0,0,1-.332.026A2.171,2.171,0,0,1,943.91,4084.735Zm-26.267,1.846-1.808-.286.089-.6a2.161,2.161,0,0,1,2.455-1.847l1.809.286-.089.6a2.172,2.172,0,0,1-2.127,1.872A2.125,2.125,0,0,1,917.643,4086.581Zm32.538-2.028a2.812,2.812,0,0,1,.3-3.892l1.741-1.524.476.573a2.816,2.816,0,0,1-.3,3.893l-1.738,1.524Zm-38.57-.95a2.811,2.811,0,0,1-.3-3.893l.477-.573,1.739,1.524a2.8,2.8,0,0,1,.3,3.892l-.476.574Zm7.733-.39-1.688-.72.226-.555a2.135,2.135,0,0,1,2.816-1.191l1.69.721-.228.557a2.155,2.155,0,0,1-1.989,1.359A2.108,2.108,0,0,1,919.344,4083.212Zm22.5-1.19-.226-.556,1.688-.721a2.134,2.134,0,0,1,2.816,1.19l.228.557-1.69.72a2.1,2.1,0,0,1-.826.17A2.156,2.156,0,0,1,941.847,4082.022Zm-2.633-2.119-.349-.488,1.469-1.115a2.12,2.12,0,0,1,3.012.466l.35.486-1.472,1.114a2.115,2.115,0,0,1-3.01-.464Zm-17.428.464-1.47-1.114.35-.486a2.118,2.118,0,0,1,3.01-.466l1.472,1.115-.35.488a2.117,2.117,0,0,1-3.012.464Zm26.109-.056a2.807,2.807,0,0,1-.618-3.854l1.332-1.9.6.438a2.8,2.8,0,0,1,.617,3.853l-1.332,1.905Zm-33.71-1.469a2.811,2.811,0,0,1,.618-3.853l.6-.438,1.335,1.9a2.809,2.809,0,0,1-.618,3.853l-.6.439Zm3.61-3.985a2.786,2.786,0,0,1,1.5-3.591l.683-.281.849,2.176a2.789,2.789,0,0,1-1.5,3.592l-.681.281Zm26.886,1.9a2.791,2.791,0,0,1-1.5-3.592l.851-2.177.681.281a2.785,2.785,0,0,1,1.5,3.591l-.849,2.177Z" transform="translate(-908.005 -4070.984)" fill="#fff"></path></svg>